<?xml version="1.0" encoding="UTF-8" standalone="no"?>
<!-- Created with Inkscape (http://www.inkscape.org/) -->

<svg
   xmlns:dc="http://purl.org/dc/elements/1.1/"
   xmlns:cc="http://creativecommons.org/ns#"
   xmlns:rdf="http://www.w3.org/1999/02/22-rdf-syntax-ns#"
   xmlns:svg="http://www.w3.org/2000/svg"
   xmlns="http://www.w3.org/2000/svg"
   version="1.1"
   width="100%"
   height="100%"
   viewBox="0 0 51.437405 85.999999"
   id="svg3051"
   xml:space="preserve"><metadata
     id="metadata3061"><rdf:RDF><cc:Work
         rdf:about=""><dc:format>image/svg+xml</dc:format><dc:type
           rdf:resource="http://purl.org/dc/dcmitype/StillImage" /><dc:title></dc:title></cc:Work></rdf:RDF></metadata><defs
     id="defs3059" /><path
     d="M 25.71875,-3.2146525e-7 C 11.51075,-3.2146525e-7 0,11.51175 0,25.718749 c 0,3.215 0.57925,6.288001 1.65625,9.125001 l 0.0937,0.25 c 0.116,0.26 0.22275,0.46875 0.21875,0.46875 -0.004,0 0.002,0.067 0.0312,0.125 0.029,0.059 0.27925,0.54575 0.53125,1.09375 0.252,0.547 1.79525,3.534 2.78125,5.5 l 18.625,37.124997 c 0.986,1.967 2.60875,1.967 3.59375,0 L 46.093655,42.375 c 0.985,-1.967 2.02675,-4.046 2.34375,-4.625 0.316,-0.579 1.0605,-2.1835 1.0625,-2.1875 -10e-4,0 0.50825,-1.7095 1.15625,-3.8125 0.001,0 0.78125,-2.543251 0.78125,-6.031251 C 51.437405,11.51175 39.925655,-3.2146525e-7 25.71865,-3.2146525e-7 z"
     id="path3053-2"
     style="fill:#f2785f;fill-opacity:0.94117647" /><ellipse
     cx="50.566002"
     cy="93.112999"
     rx="1.988"
     ry="0.38699999"
     transform="translate(-24.847298,-7.5000003)"
     id="ellipse3055-7"
     style="fill:#4d4d4d" /><path
     d="m 58.968058,34.894348 a 21.375921,21.375921 0 1 1 -42.751843,0 21.375921,21.375921 0 1 1 42.751843,0 z"
     transform="matrix(0.87356321,0,0,0.87356321,-7.120407,-4.4332803)"
     id="path2983"
     style="fill:#ffffff;fill-opacity:1" /></svg>